
<svg width="28px" height="21px" viewBox="0 0 28 21" version="1.1" xmlns="http://www.w3.org/2000/svg" xmlns:xlink="http://www.w3.org/1999/xlink">
  <g id="Page-1" stroke="none" stroke-width="1" fill="none" fill-rule="evenodd">
    <g id="Artboard-2" fill="#2A3E52">
      <g id="Logo">
        <path d="M9.0990991,12.2162162 C8.07807297,11.7657635 7.20345709,11.1351392 6.47522523,10.3243243 C5.74699336,9.51350946 5.21021194,8.5976027 4.86486486,7.57657658 C4.53453288,8.68769324 4.00901261,9.67867432 3.28828829,10.5495495 C2.56756396,11.4204248 1.68919437,12.0960937 0.653153153,12.5765766 L0,11.6756757 C0.630633784,11.4054041 1.20870608,11.0412936 1.73423423,10.5833333 C2.25976239,10.1253731 2.71020833,9.61111396 3.08558559,9.04054054 C3.46096284,8.46996712 3.74999899,7.85060394 3.9527027,7.18243243 C4.15540642,6.51426092 4.25675676,5.83483829 4.25675676,5.14414414 L4.25675676,4.85135135 L0.27027027,4.85135135 L0.27027027,3.83783784 L4.25675676,3.83783784 L4.25675676,1.22522523 L5.42792793,1.22522523 L5.42792793,3.83783784 L9.27927928,3.83783784 L9.27927928,4.85135135 L5.42792793,4.85135135 L5.42792793,5.14414414 C5.42792793,5.80480811 5.53303198,6.44293986 5.74324324,7.05855856 C5.9534545,7.67417725 6.24999809,8.25224955 6.63288288,8.79279279 C7.01576768,9.33333604 7.46996734,9.81756543 7.9954955,10.2454955 C8.52102365,10.6734256 9.09909595,11.0225212 9.72972973,11.2927928 L9.0990991,12.2162162 Z M3.28828829,14.4684685 L16.4864865,14.4684685 L16.4864865,21 L15.2927928,21 L15.2927928,15.481982 L3.28828829,15.481982 L3.28828829,14.4684685 Z M16.4864865,1 L16.4864865,13.2747748 L15.3378378,13.2747748 L15.3378378,7.53153153 L12.1846847,7.53153153 L12.1846847,13.1171171 L11.036036,13.1171171 L11.036036,1.36036036 L12.1846847,1.36036036 L12.1846847,6.51801802 L15.3378378,6.51801802 L15.3378378,1 L16.4864865,1 Z" id="book"></path>
        <path d="M22.474,0.804 L21.244,0.804 L21.244,4.371 L20.23,4.371 L20.23,0.804 L19,0.804 L19,0 L22.474,0 L22.474,0.804 Z M27.901,0 L27.901,4.371 L27.007,4.371 L27.007,1.857 C27.007,1.79899971 27.0085,1.73600034 27.0115,1.668 C27.0145,1.59999966 27.02,1.53100035 27.028,1.461 L25.867,3.708 C25.8309998,3.77800035 25.7825003,3.83099982 25.7215,3.867 C25.6604997,3.90300018 25.5910004,3.921 25.513,3.921 L25.375,3.921 C25.2969996,3.921 25.2275003,3.90300018 25.1665,3.867 C25.1054997,3.83099982 25.0570002,3.77800035 25.021,3.708 L23.86,1.455 C23.866,1.52700036 23.871,1.59749966 23.875,1.6665 C23.879,1.73550035 23.881,1.79899971 23.881,1.857 L23.881,4.371 L22.987,4.371 L22.987,0 L23.761,0 C23.8050002,0 23.8434998,0.00099999 23.8765,0.003 C23.9095002,0.00500001 23.9389999,0.01099995 23.965,0.021 C23.9910001,0.03100005 24.0144999,0.046499895 24.0355,0.0675 C24.0565001,0.088500105 24.0769999,0.11799981 24.097,0.156 L25.222,2.373 C25.2620002,2.44900038 25.3004998,2.52799959 25.3375,2.61 C25.3745002,2.69200041 25.4099998,2.77599957 25.444,2.862 C25.4780002,2.77399956 25.5134998,2.68800042 25.5505,2.604 C25.5875002,2.51999958 25.6269998,2.44000038 25.669,2.364 L26.791,0.156 C26.8110001,0.11799981 26.8314999,0.088500105 26.8525,0.0675 C26.8735001,0.046499895 26.8969999,0.03100005 26.923,0.021 C26.9490001,0.01099995 26.9784998,0.00500001 27.0115,0.003 C27.0445002,0.00099999 27.0829998,0 27.127,0 L27.901,0 Z" id="TM"></path>
      </g>
    </g>
  </g>
</svg>